<?xml version="1.0" encoding="utf-8"?>
<!-- Generator: Adobe Illustrator 21.1.0, SVG Export Plug-In . SVG Version: 6.00 Build 0)  -->
<svg version="1.1" id="Capa_1" opacity=".1" preserveAspectRatio="none" xmlns="http://www.w3.org/2000/svg" xmlns:xlink="http://www.w3.org/1999/xlink" x="0px" y="0px"
	 viewBox="0 0 312 512" style="enable-background:new 0 0 312 512;" xml:space="preserve">
<style type="text/css">
	.st0{fill:#ffffff;}
</style>
<g>
	<g>
		<polygon class="st0" points="103.7,0 86.8,0 86.8,66.4 225.1,66.4 225.1,0 208.2,0 208.2,52.3 103.7,52.3 		"/>
		<path class="st0" d="M194,247.8h11.8c-3.9-24-24.8-42.4-50-42.4s-46,18.4-49.9,42.4h11.8c3.7-17.6,19.3-30.8,38.1-30.8
			C174.7,217,190.3,230.2,194,247.8z"/>
		<polygon class="st0" points="208.2,512 225.1,512 225.1,446.5 86.8,446.5 86.8,512 103.7,512 103.7,459.7 208.2,459.7 		"/>
		<path class="st0" d="M117.9,264.2H106c3.9,24,24.8,42.4,49.9,42.4c25.1,0,46-18.4,49.9-42.4h-11.8c-3.8,17.6-19.3,30.8-38.1,30.8
			S121.6,281.7,117.9,264.2z"/>
		<path class="st0" d="M0,264.2l0,242.4c0,3,2.4,5.4,5.4,5.4h65.1v-68.2c0-7.5,6.1-13.6,13.6-13.6H117h77.9h32.9
			c7.5,0,13.6,6.1,13.6,13.6V512h65.1c3,0,5.4-2.4,5.4-5.4V264.2h-88.3c-4,33.8-32.8,60-67.6,60s-63.6-26.3-67.6-60H0z"/>
		<path class="st0" d="M5.4,0C2.4,0,0,2.4,0,5.4l0,242.4h88.4c4-33.8,32.8-60,67.6-60s63.6,26.3,67.6,60H312V5.4
			c0-3-2.4-5.4-5.4-5.4l-65.1,0v69.1c0,7.5-6.1,13.6-13.6,13.6h-32.9H117H84.1c-7.5,0-13.6-6.1-13.6-13.6V0L5.4,0z"/>
	</g>
</g>
</svg>
