<svg id="Layer_1" opacity=".1" preserveAspectRatio="none" data-name="Layer 1" xmlns="http://www.w3.org/2000/svg" viewBox="0 0 1414.42 2258.75"><title>Untitled-1</title><path d="M1237,38.14a145.37,145.37,0,0,1,145.37,145.37v1898A145.37,145.37,0,0,1,1237,2226.9H183.27A145.37,145.37,0,0,1,37.9,2081.53v-1898A145.37,145.37,0,0,1,183.27,38.14H1237m0-35H183.27A180.37,180.37,0,0,0,2.9,183.51v1898A180.37,180.37,0,0,0,183.27,2261.9H1237a180.37,180.37,0,0,0,180.37-180.37v-1898A180.37,180.37,0,0,0,1237,3.14Z" transform="translate(-2.9 -3.14)" fill="#fff"/><rect x="317.46" y="17.83" width="779.49" height="387.18" fill="none" stroke="#fff" stroke-miterlimit="10" stroke-width="35"/><path d="M901.78,38.14V183.53h-389V38.14h389m35-35h-459V218.53h459V3.14Z" transform="translate(-2.9 -3.14)" fill="#fff"/><path d="M831.91,427.28a121.79,121.79,0,1,1-243.59,0" transform="translate(-2.9 -3.14)" fill="none" stroke="#fff" stroke-miterlimit="10" stroke-width="35"/><rect x="320.37" y="1850.83" width="779.49" height="387.18" transform="translate(1417.32 4085.7) rotate(-180)" fill="none" stroke="#fff" stroke-miterlimit="10" stroke-width="35"/><path d="M907.42,2075.46v145.38h-389V2075.46h389m35-35h-459v215.38h459V2040.46Z" transform="translate(-2.9 -3.14)" fill="#fff"/><path d="M588.32,1831.7a121.79,121.79,0,1,1,243.59,0" transform="translate(-2.9 -3.14)" fill="none" stroke="#fff" stroke-miterlimit="10" stroke-width="35"/><line y1="1129.38" x2="1414.42" y2="1129.38" fill="none" stroke="#fff" stroke-miterlimit="10" stroke-width="35"/><circle cx="704.39" cy="1129.38" r="172.52" fill="none" stroke="#fff" stroke-miterlimit="10" stroke-width="35"/></svg>