<svg id="Layer_1" data-name="Layer 1" xmlns="http://www.w3.org/2000/svg" viewBox="0 0 1172.53 235.71"><defs><style>.cls-1{fill:#fff;}</style></defs><title>LineMeUp</title><path class="cls-1" d="M127.43,197.8a263.82,263.82,0,0,0-29.16,1.62c-58.68,7-90.18,31-81.9,36.9C12.6,236.32,3.6,230,2.7,222.1c-.9-9.54,20-18.9,43.56-25,15.48-10.8,34.56-32.76,49.86-50.58a170.72,170.72,0,0,1-21.24,1.44c-31,0-56.16-12.6-58.14-29-.36-2.34,1.8-6.84,4.32-9.9,5.22-6.12,13.68-6.48,14.94-5.76-3.24,1.08-7,4.14-7.2,7.38-.54,12.24,20.88,29.16,54.18,29.16q4.86,0,10.26-.54c3.24-.36,6.3-.72,9.54-1.26C138.05,93.77,176,36,208.25,35.27c10.26-.18,18.36,6.12,16.92,17.64-3.24,31-51.66,73.26-107.64,88.92-17.1,20.34-37.26,41.4-51.84,51.12a203.05,203.05,0,0,1,25.74-3.06c4.14-.18,8.28-.36,12.78-.36,39.06,0,89.46,8.46,106.92,22.5C191,203.74,160,197.8,127.43,197.8Zm-2-65.52c58-19.44,91.62-70.2,90-85.5-.54-4.68-3.24-7.92-7.92-6.48C192.77,44.81,160,90.71,125.46,132.29Z" transform="translate(-2.67 -33.65)"/><path class="cls-1" d="M171.72,186.46c-2.88-.9-7.38-5.4-7.38-8.64,0-10.44,26.1-49.68,37.62-58.86a3.75,3.75,0,0,1,2.7-1.08c4.14,0,11.34,7.2,11.34,11.7,0,.72-.9-.18-2.34-.36-7.38-.72-32,40.32-34.2,47.7,11-2.88,37.26-27.9,48.24-38.52,1.26-.9,2.16.54,1.62,1.08-15.66,16.92-44.28,46.26-55.44,47.16A9.53,9.53,0,0,1,171.72,186.46Zm60.12-90.36c1.62,1.8,2.7,4.5,2,4.5a5.37,5.37,0,0,0-3.78.18c-3.06,1.26-11.34,8.64-13.5,11.7-2.52,3.24-6.3-.54-6.48-3.78-.18-5.22,6.66-16.92,11.34-18.36C225.54,89.81,229.5,93.41,231.84,96.11Z" transform="translate(-2.67 -33.65)"/><path class="cls-1" d="M265.85,176.92c11.34-3.06,37.08-27.72,48.6-38.52,1.08-.9,2,.54,1.44,1.08-15.66,17.1-45,46.8-55.8,46.8-1.8,0-3.78-1.62-5.58-3.78-2-2.34-3.24-5-3.24-7,0-10.26,20.88-40.32,30.24-48.78-14.76,6.66-41.22,28.44-54.54,42.84a84.61,84.61,0,0,0-6.48,7.56c-4.86,5.76-6.12,10.62-3.42,11.88-5.4,1.26-9.72-4.5-11.16-9.72-.36-1.26.54-6.12,5-14.4a236.31,236.31,0,0,1,17.1-27.36c6.48-9.18,14.4-18.72,19.08-22.32a3.51,3.51,0,0,1,2.34-.9c4.5,0,11.34,7,11.34,11.52,0,.72-.72-.18-2.16-.36-2.34-.18-9,7.38-14.4,14.4-8.46,11.16-17.82,24.48-20.52,29.52a72.74,72.74,0,0,1,9.18-10.08c20.16-19.8,51.84-44.1,58-44.1,4.32,0,10.08,9.72,7.74,11.7C294.11,130.48,266.21,168.46,265.85,176.92Z" transform="translate(-2.67 -33.65)"/><path class="cls-1" d="M304.92,175.3c-.18,2.16,1.44,3.42,5.4,3.42,13.14,0,46.08-25,64.26-40.14.54-.36,1.8.54,1.26,1.08-13.5,12.6-49.32,47-73.26,47-5.58,0-12.78-6.48-12.78-11.34a33.42,33.42,0,0,1,2.52-11.88c4.32-10.26,13.5-21.6,24.84-31.14,14.94-12.42,31-18,38.7-18,2.7,0,11,4.14,11,9.18,0,11.16-34.56,37.08-54.72,37.62C308.88,164.86,305.46,170.62,304.92,175.3Zm9.54-17.82c15.66-1.8,45.54-31,46.62-37.8C341.09,126.17,320.39,147.94,314.45,157.48Z" transform="translate(-2.67 -33.65)"/><path class="cls-1" d="M480.95,156.94c-23.76,26.82-35.46,44.1-35.46,49.14,0,2.34,10.8-3.42,10.08-2.7-4.5,5.94-14,8.82-17.64,8.82-3.06,0-5.94-3.24-5.94-6.66,0-23,92.16-131.93,92.16-157.49,0-8.46-8.28-9.9-14.94-9.9-50.4,0-133.37,84.6-133.37,95.94a3.41,3.41,0,0,0,3.6,3.24,50,50,0,0,0,8.82-1.44c0,1.62-10.8,5.94-14.94,5.94-5.76,0-9.54-4.5-9.54-9.9,0-29,91.62-98.28,145.43-98.28,17.1,0,26.28,8.64,26.28,23.4,0,17.1-29.88,60.48-53.82,92.88C533.51,91.79,579.41,59,587.5,59c5.76,0,15.12,5.58,16,12.78-.72-1.08-2.7-1.44-4-1.44-7.2,0-52.56,65.88-71.28,106.2C565,115,648.7,51.11,660.76,51.11c6.12,0,14.58,9.54,15.3,13.68-1.62-1.08-4.14-1.08-5.76-1.08-16.2,0-89.1,91.8-89.1,133,0,17.28,7.56,24.3,26.82,23.76,17.1-.54,43.38-12.42,55.8-21.06-21.42,19.8-50,25.2-56.34,25.92-2,.18-3.78.36-5.58.36-19.08,0-32.22-12.06-32.22-32.76,0-34.74,35.46-88.38,50.76-103.32C594.52,101.51,525,175.3,525,193.12c0,3.42-12.42-2.7-12.42-10.08,0-18.18,41.58-88.74,55.26-102.06C542.87,94.49,506.69,128.69,480.95,156.94Z" transform="translate(-2.67 -33.65)"/><path class="cls-1" d="M626,175.3c-.18,2.16,1.44,3.42,5.4,3.42,13.14,0,46.08-25,64.26-40.14.54-.36,1.8.54,1.26,1.08-13.5,12.6-49.32,47-73.26,47-5.58,0-12.78-6.48-12.78-11.34a33.43,33.43,0,0,1,2.52-11.88c4.32-10.26,13.5-21.6,24.84-31.14,14.94-12.42,31-18,38.7-18,2.7,0,11,4.14,11,9.18,0,11.16-34.56,37.08-54.72,37.62C630,164.86,626.57,170.62,626,175.3Zm9.54-17.82c15.66-1.8,45.54-31,46.62-37.8C662.21,126.17,641.51,147.94,635.57,157.48Z" transform="translate(-2.67 -33.65)"/><path class="cls-1" d="M864.34,196.54c0,4.14,2.16,8.46,10.44,8.46s16.74-4,23-7c-2.7,2.7-13.86,11.16-24.12,11.16-12.06,0-20.88-4.86-20.88-17.46,0-21.78,18.18-56.16,28.8-70.92-27.36,26.1-99.36,90.9-122,90.9-4.32,0-11.52-7.56-11.52-12.06,0-28.8,98.64-126.89,98.64-150.47,0-8.64-8.1-10.44-16-10.44-47.16,0-135.35,77.76-135.35,96.48a3.92,3.92,0,0,0,4.14,4.14,37,37,0,0,0,6.66-.9c-2.16,2.16-6.12,5.22-10.62,5.22-9.36,0-11.16-7.74-11.16-11.7,0-38.34,96.48-97.56,144.35-97.56,13.14,0,23.94,6.12,23.94,22,0,34.74-88.74,128.87-88.74,143.81,11.16,1.26,83.34-53.46,110.88-80.1,9-9,22.68-24.48,35.64-39.6,11.16-13.14,22.32-25.2,29.88-31.68,3.06-2.88,9.72-7.56,13.14-7.56,6.48,0,13.86,5.94,14.94,13.32a5.1,5.1,0,0,0-5-2.34c-5.4,0-18,11.52-32.22,28.08C902.5,113.39,864.34,167.2,864.34,196.54Z" transform="translate(-2.67 -33.65)"/><path class="cls-1" d="M934.73,115.19a4.36,4.36,0,0,1,2.7-1.08c4.14,0,11,7,11,11.7,0,.54-.54-.18-1.8-.36-2.7-.36-9,7-14.76,14.4-2.34,2.88-10.08,14-10.08,14,15.66-17.1,49.32-41.58,58.32-38.52,2.34.9,8.64,7.74,8.64,10.44,0,16.2-35.28,59.4-59.94,59.4-7,0-15.3-4.5-15.3-10.44,0-.9.9-1.26.9-.72,0,1.8,3.06,5.22,6.84,5.22,18.18,0,50.58-46.62,52.74-56.7-2.7,0-31.68,14.4-63,47.34-17.46,25-42.84,63.36-47.34,90-.9,4.5-.9,8.1,3.24,8.64-8.28,3.24-16.38-3.42-14.94-14.4,3.78-30.24,39.78-86.58,67.14-121.68C923.93,126.35,931.13,118.07,934.73,115.19Z" transform="translate(-2.67 -33.65)"/><path class="cls-1" d="M997,187.36c-3.6.18-7-4.68-7.2-7.92-.36-5,6.84-13.68,12.24-14.22,3.6-.18,11.16,3.42,12.42,6.84C1008.35,172.24,999,187.18,997,187.36Z" transform="translate(-2.67 -33.65)"/><path class="cls-1" d="M1031.21,186.46c-2.88-.9-7.38-5.4-7.38-8.64,0-10.44,26.1-49.68,37.62-58.86a3.75,3.75,0,0,1,2.7-1.08c4.14,0,11.34,7.2,11.34,11.7,0,.72-.9-.18-2.34-.36-7.38-.72-32,40.32-34.2,47.7,11-2.88,37.26-27.9,48.24-38.52,1.26-.9,2.16.54,1.62,1.08-15.66,16.92-44.28,46.26-55.44,47.16A9.53,9.53,0,0,1,1031.21,186.46Zm60.12-90.36c1.62,1.8,2.7,4.5,2,4.5a5.37,5.37,0,0,0-3.78.18c-3.06,1.26-11.34,8.64-13.5,11.7-2.52,3.24-6.3-.54-6.48-3.78-.18-5.22,6.66-16.92,11.34-18.36C1085,89.81,1089,93.41,1091.32,96.11Z" transform="translate(-2.67 -33.65)"/><path class="cls-1" d="M1141.36,117.35c-32.58,0-70.2,60.66-60.12,65,10.08,4.14,35.82-24.66,47.88-43-.9-1.62-2.7-7-2-8.82.54-1.8,5.94-7.2,8.28-7.38a5.58,5.58,0,0,1,4.14,1.8c3.42,5.58,7.74,9.72,14.94,9.18,12.06-1.08,18.72-8.1,20.7-7.92-.9,2.52-8.1,8.46-16.92,11.34a35.47,35.47,0,0,1-10.62,1.62,15.81,15.81,0,0,1-5.4-.72c-4.86,23.94-42.12,49.86-61.2,48.78A14.48,14.48,0,0,1,1067.38,173c0-29.34,39.42-58.68,67.86-58.68,6.84,0,9.72,2,11,3.06.9.54.36.54-.36.54C1144.06,117.71,1142.62,117.35,1141.36,117.35Z" transform="translate(-2.67 -33.65)"/></svg>